<svg width="70" height="53" viewBox="0 0 70 53" fill="none" xmlns="http://www.w3.org/2000/svg">
<path d="M0.950995 53V36.8068C0.950995 32.3087 1.82694 27.7633 3.57884 23.1705C5.37808 18.5303 7.69815 14.2216 10.5391 10.2443C13.4273 6.2197 16.4103 2.9053 19.4879 0.301137L34.2607 8.39773C31.7038 12.5644 29.6679 16.9205 28.1527 21.4659C26.6375 25.964 25.9036 31.054 25.951 36.7358V53H0.950995ZM36.6044 53V36.8068C36.6044 32.3087 37.4804 27.7633 39.2322 23.1705C41.0315 18.5303 43.3516 14.2216 46.1925 10.2443C49.0807 6.2197 52.0637 2.9053 55.1413 0.301137L69.9141 8.39773C67.3572 12.5644 65.3213 16.9205 63.8061 21.4659C62.291 25.964 61.5571 31.054 61.6044 36.7358V53H36.6044Z" fill="#34520D"/>
</svg>
