<svg width="74" height="86" viewBox="0 0 74 86" fill="none" xmlns="http://www.w3.org/2000/svg">
<g clip-path="url(#clip0_23_134)">
<path d="M80.647 24.9135L11.5183 -8.52131L-7.33167 60.2995L61.797 93.7344L80.647 24.9135Z" fill="white"/>
<path d="M80.647 24.9135L11.5183 -8.52131L-7.33167 60.2995L61.797 93.7344L80.647 24.9135Z" fill="white"/>
<mask id="mask0_23_134" style="mask-type:luminance" maskUnits="userSpaceOnUse" x="19" y="12" width="54" height="70">
<path d="M32.7468 12.7419L72.0734 31.7626L58.5428 81.1625L19.2162 62.1418L32.7468 12.7419Z" fill="white"/>
</mask>
<g mask="url(#mask0_23_134)">
<path d="M70.1833 30.8491C20.1568 6.65326 21.3594 63.1783 21.3594 63.1783C21.3594 63.1783 35.066 42.0978 62.0163 34.5332C62.0163 34.5332 38.1409 49.224 25.7016 65.1269C70.5283 83.6152 70.1833 30.8491 70.1833 30.8491Z" fill="#34520D"/>
</g>
<mask id="mask1_23_134" style="mask-type:luminance" maskUnits="userSpaceOnUse" x="3" y="4" width="35" height="51">
<path d="M14.7732 4.04882L37.9697 15.2681L27.12 54.8801L3.92349 43.6608L14.7732 4.04882Z" fill="white"/>
</mask>
<g mask="url(#mask1_23_134)">
<path d="M17.7137 5.47175C2.68178 25.2083 11.3627 42.2728 20.6032 51.6253C20.7852 50.591 20.9973 49.5164 21.2489 48.4169C21.767 46.1284 22.4241 43.9105 23.2207 41.7636C23.2207 41.7636 14.8945 26.4856 17.6248 11.3465C17.6248 11.3465 18.31 28.1382 24.5046 38.6865C24.8717 37.8993 25.2573 37.1393 25.661 36.4071C28.0491 32.0821 31.093 28.7474 34.7069 26.497C34.7562 26.466 34.8073 26.4359 34.8571 26.4052C29.55 14.2491 17.7137 5.47175 17.7137 5.47175Z" fill="#67A516"/>
</g>
</g>
<defs>
<clipPath id="clip0_23_134">
<rect width="63.9915" height="59.4631" fill="white" transform="matrix(0.900233 0.435408 -0.264169 0.964476 15.7083 0)"/>
</clipPath>
</defs>
</svg>
