<svg width="410" height="518" viewBox="0 0 410 518" fill="none" xmlns="http://www.w3.org/2000/svg">
<g opacity="0.25" clip-path="url(#clip0_23_170)">
<path d="M453.4 143.865L49.0181 -51.7186L-67.4 373.321L336.982 568.905L453.4 143.865Z" fill="white"/>
<path d="M453.4 143.865L49.0181 -51.7186L-67.4 373.321L336.982 568.905L453.4 143.865Z" fill="white"/>
<mask id="mask0_23_170" style="mask-type:luminance" maskUnits="userSpaceOnUse" x="88" y="75" width="315" height="418">
<path d="M172.33 75.8332L402.378 187.099L318.813 492.194L88.7645 380.928L172.33 75.8332Z" fill="white"/>
</mask>
<g mask="url(#mask0_23_170)">
<path d="M391.323 181.756C98.6835 40.2174 101.303 386.993 101.303 386.993C101.303 386.993 183.669 255.693 342.947 205.506C342.947 205.506 201.212 299.004 126.716 398.348C389.19 505.579 391.323 181.756 391.323 181.756Z" fill="#34520D"/>
</g>
<mask id="mask1_23_170" style="mask-type:luminance" maskUnits="userSpaceOnUse" x="0" y="24" width="203" height="312">
<path d="M67.1904 24.9814L202.883 90.6106L135.875 335.256L0.182356 269.626L67.1904 24.9814Z" fill="white"/>
</mask>
<g mask="url(#mask1_23_170)">
<path d="M84.3931 33.3057C-5.67079 156.541 44.0948 260.07 97.7632 316.187C98.9167 309.813 100.25 303.188 101.818 296.404C105.049 282.286 109.093 268.581 113.953 255.292C113.953 255.292 66.1353 162.678 83.4061 69.3764C83.4061 69.3764 86.1147 172.346 121.755 236.227C123.979 231.344 126.309 226.625 128.744 222.075C143.147 195.196 161.331 174.304 182.788 159.987C183.08 159.79 183.383 159.598 183.679 159.403C153.391 85.53 84.3931 33.3057 84.3931 33.3057Z" fill="#67A516"/>
</g>
</g>
<defs>
<clipPath id="clip0_23_170">
<rect width="374.331" height="367.246" fill="white" transform="matrix(0.900233 0.435408 -0.264169 0.964476 73.0151 0)"/>
</clipPath>
</defs>
</svg>
